<svg width="218" height="218" viewBox="0 0 218 218" fill="none" xmlns="http://www.w3.org/2000/svg">
<circle cx="109" cy="109" r="109" fill="white"/>
<path d="M38.472 143.496C34.184 143.496 31.144 142.28 29.352 139.848C27.624 137.352 26.76 133.608 26.76 128.616C26.76 125.416 27.272 120.616 28.296 114.216C29.384 107.752 30.888 99.208 32.808 88.584L27.72 78.312C30.728 76.392 33.928 74.76 37.32 73.416C40.712 72.008 44.104 71.304 47.496 71.304C50.568 71.304 53.256 71.784 55.56 72.744C57.928 73.64 59.976 75.4 61.704 78.024C63.432 80.584 64.872 84.36 66.024 89.352C67.24 94.28 68.232 100.776 69 108.84H70.152C71.688 104.424 73.608 100.008 75.912 95.592C78.216 91.176 80.968 87.144 84.168 83.496C87.368 79.848 91.08 76.936 95.304 74.76C99.592 72.52 104.456 71.4 109.896 71.4C112.904 71.4 114.888 72.296 115.848 74.088C116.808 75.816 117.288 77.896 117.288 80.328C117.288 81.352 117.096 83.016 116.712 85.32C116.392 87.56 115.944 90.184 115.368 93.192C114.792 96.136 114.184 99.24 113.544 102.504C112.968 105.704 112.392 108.84 111.816 111.912C111.24 114.92 110.76 117.608 110.376 119.976C110.056 122.28 109.896 124.04 109.896 125.256C109.896 128.52 110.12 131.272 110.568 133.512C111.08 135.752 111.816 137.64 112.776 139.176C108.936 142.056 104.968 143.496 100.872 143.496C96.584 143.496 93.544 142.28 91.752 139.848C90.024 137.352 89.16 133.608 89.16 128.616C89.16 125.864 89.544 121.928 90.312 116.808C91.144 111.688 92.264 105.096 93.672 97.032H92.136C89.384 100.68 86.984 104.776 84.936 109.32C82.888 113.8 81.256 118.28 80.04 122.76C78.888 127.176 78.12 131.112 77.736 134.568C76.136 136.04 74.376 137.16 72.456 137.928C70.6 138.632 68.744 138.984 66.888 138.984C65.352 138.984 63.912 138.408 62.568 137.256C61.224 136.04 59.976 133.928 58.824 130.92C57.672 127.912 56.648 123.688 55.752 118.248C54.92 112.744 54.248 105.672 53.736 97.032H52.2C51.368 100.68 50.6 104.424 49.896 108.264C49.192 112.04 48.616 115.464 48.168 118.536C47.72 121.608 47.496 123.848 47.496 125.256C47.496 128.52 47.72 131.272 48.168 133.512C48.68 135.752 49.416 137.64 50.376 139.176C46.536 142.056 42.568 143.496 38.472 143.496ZM152.437 143.4C146.933 143.4 141.973 142.28 137.557 140.04C133.205 137.736 129.749 134.216 127.189 129.48C124.629 124.744 123.349 118.76 123.349 111.528C123.349 108.008 123.957 104.392 125.173 100.68C126.389 96.968 128.149 93.384 130.453 89.928C132.821 86.408 135.733 83.272 139.189 80.52C142.709 77.704 146.773 75.496 151.381 73.896C155.989 72.232 161.109 71.4 166.741 71.4C170.197 71.4 173.301 71.88 176.053 72.84C178.869 73.8 181.077 75.24 182.677 77.16C184.277 79.016 185.077 81.352 185.077 84.168C185.077 86.92 184.437 89.224 183.157 91.08C181.941 92.936 180.309 94.344 178.261 95.304C176.277 96.2 174.101 96.648 171.733 96.648C168.917 96.648 166.165 95.944 163.477 94.536C160.789 93.128 158.613 91.048 156.949 88.296C154.709 89.384 152.597 91.24 150.613 93.864C148.693 96.424 147.157 99.432 146.005 102.888C144.853 106.344 144.277 109.928 144.277 113.64C144.277 116.264 144.597 118.728 145.237 121.032C145.941 123.272 146.997 125.096 148.405 126.504C149.813 127.912 151.605 128.616 153.781 128.616C155.573 128.616 157.301 127.944 158.965 126.6C160.629 125.192 162.005 123.336 163.093 121.032C164.181 118.728 164.725 116.136 164.725 113.256C168.629 113.256 171.893 113.448 174.517 113.832C177.205 114.152 179.253 114.888 180.661 116.04C182.069 117.192 182.773 118.984 182.773 121.416C182.773 123.848 182.069 126.344 180.661 128.904C179.253 131.464 177.205 133.864 174.517 136.104C171.893 138.28 168.693 140.04 164.917 141.384C161.205 142.728 157.045 143.4 152.437 143.4Z" fill="#0FB600"/>
</svg>
